<svg width="2584" height="301" viewBox="0 0 2584 301" fill="none" xmlns="http://www.w3.org/2000/svg">
<g clip-path="url(#clip0_10_71)">
<path d="M225.313 10.1364C246.313 8.15296 270.613 8.85226 290.623 15.6674C279.863 31.8956 246.623 59.5126 230.863 73.0436L154.503 137.988C148.403 143.212 121.95 163.496 122.32 170.202C128.401 173.541 191.893 176.927 204.213 177.841C197.963 184.683 180.273 199.429 172.793 205.92L108.472 261.176C93.3644 274.329 78.1644 287.377 62.8734 300.318C57.3704 278.084 52.0523 251.841 47.4023 229.391C-1.99866 191.802 -18.5246 135.57 25.6694 86.1496C73.2354 32.9586 157.093 14.6526 225.313 10.1364Z" fill="white"/>
<path d="M386.584 8.8067C389.744 6.3658 395.704 0.3847 399.134 0C401.224 2.1158 400.554 3.8669 400.654 7.5015C402.454 23.674 403.624 40.9245 404.864 57.2125C430.524 75.6105 454.764 98.8105 459.494 131.078C472.464 219.55 359.904 267.764 289.414 277.622C257.014 282.153 205.534 285.442 174.664 278.203C192.384 261.534 345.524 123.526 346.174 118.181C342.824 111.709 264.884 117.994 252.764 117.739C281.554 93.3765 310.654 69.3825 340.064 45.7645C354.024 34.4775 372.164 19.0745 386.584 8.8067Z" fill="white"/>
<path d="M1217.05 135.003C1221.57 125.16 1226.68 115.548 1230.72 105.5C1232.63 100.761 1230.79 99.9651 1229.16 95.6263L1230.37 93.8169C1238.09 92.6154 1267.81 93.1226 1275.1 94.8562C1281.62 99.7539 1280.49 115.983 1280.75 123.836L1282.23 170.109C1282.53 179.855 1280.6 198.193 1289.01 203.833L1289.3 204.028L1288.37 207.333C1288.14 207.439 1286.74 207.991 1286.55 207.964C1276.85 206.653 1245.45 213.923 1244.26 199.272C1243.09 184.961 1245.97 166.623 1243.99 152.162L1243.04 152.068L1241.08 156.652C1233.66 173.703 1226.42 190.835 1219.37 208.043C1211.89 208.194 1191.47 209.461 1185.91 206.541C1183.15 200.981 1182.64 159.434 1182.34 150.237C1177.21 164.607 1172.09 179.074 1167.33 193.585C1164.37 202.589 1169.05 200.567 1171.73 205.573L1171.01 207.404C1166.34 209.033 1137.98 208.907 1133.09 206.171C1129.3 200.02 1139.67 178.321 1142.44 171.132L1160.77 122.824C1162.99 116.915 1165.98 109.564 1167.53 103.502C1168.54 99.5648 1164.47 99.6026 1164.32 93.7957C1164.84 93.7422 1165.35 93.6879 1165.87 93.6335C1214.78 93.3208 1215.07 83.3171 1217.05 135.003Z" fill="white"/>
<path d="M1644.3 93.2184C1653.2 93.3825 1674 91.6267 1680.21 96.2625C1683.42 102.56 1674.46 135.064 1672.34 144.114C1667.47 165.494 1662.4 186.831 1657.16 208.123C1646.87 208.233 1618.77 211.208 1614.35 200.229C1608.9 186.711 1603.53 172.496 1597.92 158.891C1595.17 171.365 1590.95 186.271 1589.27 198.872C1588.94 201.276 1592.07 202.618 1594.3 204.797L1593.65 208.078C1582.05 207.934 1567.62 209.72 1556.63 206.684C1549.34 204.669 1556.21 185.508 1557.37 180.066C1562.79 154.56 1570.78 128.824 1574.33 103.074C1574.97 98.3936 1568.74 99.8487 1571.36 94.1654C1575.97 92.5959 1610.3 92.4696 1616.42 95.0258C1625.59 98.8519 1633.79 126.894 1638.09 137.619C1640.37 128.246 1645.74 110.612 1645.2 101.187C1645.1 99.3259 1641.79 98.8823 1640.91 95.2333C1642.28 93.2285 1641.57 93.8067 1644.3 93.2184Z" fill="white"/>
<path d="M2124.63 93.4213C2142.12 93.3513 2206.69 90.3146 2219.28 97.0473C2222.99 99.0318 2225.25 101.814 2226.4 105.869C2229.12 115.405 2224.69 132.838 2219.94 141.417C2215.21 149.923 2208.68 153.397 2199.6 156.055C2202.82 162.038 2207.58 174.594 2212.61 179.097C2214.07 180.394 2217.48 178.962 2220.21 180.886C2220.84 186.233 2215.9 203.742 2210.66 206.499C2203.64 210.184 2186.83 208.89 2179.19 207.372C2172.81 201.609 2164.28 174.652 2160.18 165.152C2157.28 174.675 2153.63 187.613 2152.2 197.406C2151.93 199.275 2156.29 203.811 2157.74 205.492L2157.59 207.135C2152.44 209.363 2115.1 208.776 2109.97 205.797C2104.08 196.913 2128.06 121.269 2128.97 105.502C2129.44 97.3766 2124.94 102.558 2124.63 93.4213ZM2176.88 135.955C2181.06 130.546 2185.18 122.885 2178.72 117.759C2175.54 117.188 2174.43 117.27 2171.16 117.438C2169.93 122.307 2166.87 131.406 2167.85 135.599C2170.87 138.018 2173.27 136.998 2176.88 135.955Z" fill="white"/>
<path d="M1886.52 93.3372C1904.67 93.3437 1967.14 90.5182 1979.74 96.6137C1983.66 98.5069 1986.13 101.126 1987.49 105.297C1990.29 113.821 1986.33 131.305 1982.36 139.256C1977.55 148.869 1970.27 152.906 1960.42 156.147C1963.58 161.923 1967.41 171.867 1971.03 176.778L1971.35 177.195C1973.25 179.78 1977.6 180.071 1980.95 180.713C1981.79 183.444 1979.4 188.295 1979.19 191.082C1977.65 212.114 1957.57 210.361 1940.27 207.296C1940.06 207.092 1939.85 206.888 1939.65 206.685L1939.31 206.318C1934.8 201.464 1924.6 173.194 1921.04 164.807L1915.58 185.149C1914.73 188.352 1911.55 198.607 1913.91 201.113C1914.5 201.739 1917.1 202.654 1918.59 205.19L1917.9 207.223C1914.25 209.258 1874.99 209.046 1870.64 205.472C1865.9 194.449 1888.85 122.959 1889.96 106.594C1890.6 97.0287 1886.19 102.984 1886.52 93.3372ZM1938.19 136.201C1945.23 126.541 1947.46 117.327 1932.23 117.225C1931.05 122.034 1927.92 131.604 1928.91 135.6C1931.74 138.254 1934.6 136.98 1938.19 136.201Z" fill="white"/>
<path d="M933.736 93.5238C947.077 92.6432 963.627 93.4224 976.68 93.3763C1014.57 93.2444 1052.75 85.7997 1028.67 140.433C1024.45 150.002 1017.65 153.041 1008.14 156.184C1011.14 162.619 1014.32 169.865 1017.96 175.975C1020.34 179.969 1023.61 179.808 1028.28 180.692C1029.35 185.529 1023.62 204.008 1018.49 206.545C1011.42 210.034 994.306 208.96 986.924 207.2C982.53 203.017 971.803 173.094 968.64 164.955C966.455 171.093 960.735 192.005 960.51 199.33C960.459 200.994 964.455 203.137 966.228 204.329L965.973 206.721L964.47 207.911C955.504 208.442 924.7 209.506 918.43 205.803C912.389 197.044 936.871 121.842 937.472 106.52C937.8 98.1605 934.224 102.394 933.736 93.5238ZM985.318 136.192C989.041 131.644 992.253 125.192 989.171 119.574C985.68 116.856 984.544 117.218 979.628 117.306C978.427 122.122 975.426 131.002 976.1 135.344C978.677 138.342 981.749 136.967 985.318 136.192Z" fill="white"/>
<path d="M694.391 93.5724C704.331 93.1363 731.678 91.2781 739.99 94.395C753.144 99.3277 722.929 167.039 728.551 179.335C731.494 181.489 730.226 180.962 733.996 181.208C743.049 175.221 752.224 116.502 756.181 103.921C757.377 100.124 750.209 98.9699 753.95 93.8777C760.634 92.5664 796.241 91.9125 800.082 96.99C802.198 102.995 799.281 111.103 797.685 117.446C791.717 141.569 787.197 173.286 776.122 195.348C771.088 203.114 760.203 208.176 752.053 208.926C646.463 218.63 690.628 169.889 699.315 103.972C699.877 99.7114 695.263 99.869 694.391 93.5724Z" fill="white"/>
<path d="M2008.64 93.6103C2034.54 91.5492 2066.85 93.8648 2093.28 93.8427C2106.08 93.8316 2111.97 107.631 2109.29 119.561C2105.34 137.232 2101.49 162.027 2080.48 167.358C2073.76 169.032 2047.65 165.594 2043.42 168.693C2041.62 175.637 2036.62 192.869 2036.8 199.377C2037.7 201.911 2040.26 203.069 2042.59 204.496C2042.26 206.829 2042.51 206.05 2040.63 207.92C2034.09 208.775 1999.78 208.964 1994.08 206.251C1986.78 198.892 2014.31 118.752 2013.66 103.012C2013.53 99.8137 2009.7 97.5387 2008.64 93.6103ZM2060.02 141.527C2064.02 136.428 2069.08 123.16 2063.31 117.725C2060.75 116.283 2058.4 116.611 2055.48 116.695C2053.91 122.965 2048.78 137.01 2051.15 141.577C2054.18 142.946 2056.57 142.451 2060.02 141.527Z" fill="white"/>
<path d="M819.121 93.2204C836.652 93.4721 854.185 93.4721 871.715 93.2213C889.899 93.0986 921.69 88.0027 917.686 117.497C915.97 130.134 912.069 145.224 905.323 156.087C893.749 174.722 869.78 164.72 852.667 167.884L851.583 169.555C849.683 178.389 846.214 188.012 845.22 197.07C844.881 200.168 848.823 203.254 851.248 205.772L851.025 207.191C846.823 209.13 807.022 209.006 802.35 205.923C797.22 198.126 821.779 118.322 822.362 104.317C822.528 100.341 820.714 99.4828 818.51 96.5402L819.121 93.2204ZM868.229 141.432C872.234 135.695 877.491 123.666 871.495 117.767C868.835 116.315 866.568 116.61 863.566 116.668C862.131 123.231 857.247 137.228 859.61 141.653C862.321 142.976 865.378 142.472 868.229 141.432Z" fill="white"/>
<path d="M1543.4 93.2524C1546.17 93.1279 1549.69 92.6263 1552.04 93.8896C1552.51 99.0473 1548.14 113.913 1544.55 117.138C1541.65 119.745 1519.88 118.619 1515.47 118.574L1511.79 133.474L1540.5 133.513C1539.85 136.63 1539.16 139.742 1538.44 142.846C1536.48 151.245 1532.37 160.194 1522.36 157.598C1505.03 153.096 1503.96 166.742 1501.12 180.291C1508.08 180.28 1515.51 180.702 1522.4 180.584C1534.03 180.384 1536.47 178.638 1544.09 171.051C1541.88 180.552 1538.45 200.934 1531.81 207.205C1518.25 210.431 1471.77 208.12 1456.27 206.476C1450.34 205.847 1456.33 185.904 1457.33 181.613C1461.3 164.442 1465.37 147.292 1469.52 130.164C1471.26 122.895 1473.23 115.432 1474.52 108.11C1475.18 104.356 1470.56 97.2445 1472.47 93.838C1479.44 92.8661 1492.19 93.3013 1499.58 93.3253C1514.18 93.3778 1528.79 93.3539 1543.4 93.2524Z" fill="white"/>
<path d="M2408.99 93.4397C2434.91 92.6937 2465.06 93.3632 2491.26 93.354C2484.65 123.752 2482.4 118.932 2453.29 118.58C2452.29 123.524 2451 128.618 2449.84 133.544L2479.06 133.484C2475.52 148.317 2473.39 163.929 2453.84 156.775C2443.38 152.95 2440.87 173.715 2439.28 180.247L2454.14 180.266C2468.7 180.638 2471.26 182.287 2482.36 171.553C2479.72 180.87 2478.04 197.303 2471.96 204.288C2466.75 209.651 2452.84 208.659 2445.88 208.116C2435.39 207.298 2399.2 211.068 2393.29 204.908C2390.35 197.881 2394.56 187.281 2396.29 179.84L2407.47 131.444C2409.4 123.018 2411.69 113.956 2412.82 105.353C2413.26 101.99 2410.91 100.005 2408.61 97.4613L2408.99 93.4397Z" fill="white"/>
<path d="M1787.47 93.4646C1813.34 92.808 1842.15 93.3153 1868.23 93.283C1861.69 123.645 1859.96 118.855 1830.54 118.602L1827.42 133.527L1856.34 133.498C1855.5 137.15 1853.74 146.021 1852.4 149.052C1844.49 166.803 1835.98 152.015 1826.11 157.883C1820.06 161.488 1818.17 173.566 1816.73 180.193L1835.32 180.204C1849.51 180.717 1849.62 181.06 1859.86 170.837C1857.89 179.61 1855.47 200.059 1848.79 205.65C1843.67 209.933 1790.32 208.773 1781.14 207.989C1778 207.719 1772.09 207.127 1770.07 204.532C1766.01 199.327 1788.67 121.76 1790.43 108.631C1791.05 103.903 1789.51 101.183 1786.68 97.5591C1786.6 97.4456 1786.51 97.3341 1786.42 97.2216L1787.47 93.4646Z" fill="white"/>
<path d="M1056.7 93.317C1083.25 93.8888 1111.78 93.3447 1138.52 93.3843C1131.69 123.346 1130.21 119.097 1100.74 118.52L1097.13 133.449L1126.19 133.539C1125.42 137.023 1124.61 140.499 1123.76 143.965C1115.76 176.239 1093.32 137.022 1087.62 174.76C1087.42 176.081 1086.73 178.709 1086.42 180.168L1106.39 180.264C1119.24 180.626 1116.17 181.029 1125.95 174.635L1127.97 175.083C1128.34 180.7 1121.64 207.377 1114.36 207.357C1101.01 207.319 1050.52 210.914 1041.2 205.99C1037.02 200.406 1043.12 180.798 1044.75 174.05L1055.19 130.072C1057.02 122.316 1059.37 113.248 1060.64 105.484C1061.67 99.1507 1056.34 102.673 1056.7 93.317Z" fill="white"/>
<path d="M1320.33 93.3677C1347.51 93.2533 1374.7 93.2792 1401.89 93.447C1394.53 123.629 1393.33 118.796 1364.03 118.601L1360.38 133.506L1389.15 133.48C1388.7 135.671 1386.96 144.637 1386.41 146C1373.53 178.051 1360.46 131.103 1349.73 180.175L1365.98 180.209C1380.35 180.737 1382.9 182.174 1393.15 170.897C1390.97 180.032 1386.61 207.741 1375.92 207.668C1363.83 207.587 1312.4 210.38 1304.6 205.983C1299.94 200.513 1304.76 187.899 1306.4 180.873L1318.08 132.158C1320.24 123.192 1322.89 113.41 1323.9 104.229C1324.23 101.318 1321.97 99.5997 1320.05 97.4253L1320.33 93.3677Z" fill="white"/>
<path d="M2332.66 93.9468C2343.05 92.5581 2378.5 93.3142 2390.75 93.329C2382.58 125.311 2383.43 116.225 2355.49 119.333C2353.38 119.567 2352.28 122.535 2351.58 124.441C2352.47 128.02 2366.07 137.313 2370.25 140.046C2390.53 153.336 2381.68 181.444 2370.36 197.807C2365.42 204.947 2357.89 207.413 2348.55 208.37C2334.18 208.142 2319.81 208.745 2305.4 208.511C2290.23 208.265 2295.2 184.238 2300.05 176.262C2302.47 174.718 2301.37 174.935 2304.16 175.414C2307.83 183.282 2337.5 182.706 2341.56 175.028C2342.9 162.959 2319.07 162.256 2313.67 145.345C2309.71 132.979 2311.15 121.292 2315.82 108.863C2318.79 100.954 2325.29 96.7613 2332.66 93.9468Z" fill="white"/>
<path d="M1776.08 90.2482L1778.83 90.1588L1779.32 91.3511C1777.97 97.5647 1774.81 111.749 1770.6 116.977C1768.8 119.214 1759.86 118.648 1756.54 118.592C1752.16 137.782 1747.66 156.944 1743.03 176.076C1741.58 181.955 1739.15 188.852 1738.2 194.734C1737.48 199.19 1742.56 204.307 1742.6 207.414C1739.43 208.366 1728.6 208.153 1724.7 207.938C1708.91 207.072 1688.15 215.824 1694.33 191.759C1695.09 186.711 1699.04 172.067 1700.45 166.434C1704.53 150.537 1708.38 134.581 1712 118.574C1704.1 118.343 1695.06 121.738 1692.26 120.701C1693.41 115.225 1695.94 98.3919 1700.54 96.0828C1717.54 87.5491 1761.17 99.0559 1776.08 90.2482Z" fill="white"/>
<path d="M2248 93.5218C2257.38 93.3844 2285.44 91.8204 2293.67 95.1587C2300.57 97.9547 2292.38 124.409 2290.74 131.488L2279.89 179.295C2278.67 184.699 2276.25 193.364 2276.03 198.705C2275.84 203.611 2280.72 200.683 2282.35 207.183C2281.38 207.558 2279.37 208.044 2277.92 207.952C2265.86 207.186 2242.12 211.352 2232.51 204.634C2231.77 204.115 2231.36 201.811 2231.5 200.95C2236.68 168.418 2246.89 136.458 2252.13 103.908C2252.6 101.019 2248.12 100.21 2248 93.5218Z" fill="white"/>
<path d="M580.523 195.269L580.644 195.018C583.692 188.526 583.132 181.419 586.359 175.84C586.939 175.706 631.945 189.826 627.948 171.693C615.602 155.663 594.205 158.481 597.599 125.54C602.104 81.813 643.047 94.1387 677.346 93.092C674.961 101.865 673.282 112.458 665.2 117.516C653.575 124.791 642.167 110.488 638.002 124.376C639.503 134.097 667.355 138.117 667.771 157.592C669.073 218.579 629.364 210.206 584.949 206.608C584.227 206.549 581.07 202.625 580.523 201.802V195.269Z" fill="white"/>
<path d="M2583.47 94.6727C2581.42 97.323 2579.07 107.648 2577.58 111.623C2572.09 126.259 2548.99 111.094 2543.88 124.203C2547.47 136.734 2586.64 139.781 2571.84 180.173C2558.21 217.36 2545.37 206.174 2510.88 208.6C2504.67 209.036 2499.64 209.018 2493.84 207.455C2482.13 205.254 2489.52 182.174 2492.29 175.326C2498.01 172.64 2497.38 180.519 2501.66 180.151C2509.63 179.464 2532.55 184.295 2534.75 173.699C2534.23 171.552 2532.36 169.175 2530.61 168.075C2514.31 157.824 2501.29 147.546 2503.9 126.119C2504.99 117.271 2507.27 107.684 2514.01 100.868C2516.88 97.9288 2520.51 95.8318 2524.48 94.8018C2533.83 92.2824 2571.28 93.3226 2583.47 93.3051V94.6727Z" fill="white"/>
</g>
<defs>
<clipPath id="clip0_10_71">
<rect width="2583.47" height="300.318" fill="white"/>
</clipPath>
</defs>
</svg>
